<?xml version="1.0" encoding="UTF-8" standalone="no"?>
<!-- Created with Inkscape (http://www.inkscape.org/) -->

<svg
   xmlns:dc="http://purl.org/dc/elements/1.1/"
   xmlns:cc="http://creativecommons.org/ns#"
   xmlns:rdf="http://www.w3.org/1999/02/22-rdf-syntax-ns#"
   xmlns:svg="http://www.w3.org/2000/svg"
   xmlns="http://www.w3.org/2000/svg"
   xmlns:sodipodi="http://sodipodi.sourceforge.net/DTD/sodipodi-0.dtd"
   xmlns:inkscape="http://www.inkscape.org/namespaces/inkscape"
   id="svg5581"
   version="1.1"
   inkscape:version="0.91 r13725"
   xml:space="preserve"
   width="808.30914"
   height="554.0625"
   viewBox="0 0 808.30914 554.0625"
   sodipodi:docname="elephant.svg"><metadata
     id="metadata5587"><rdf:RDF><cc:Work
         rdf:about=""><dc:format>image/svg+xml</dc:format><dc:type
           rdf:resource="http://purl.org/dc/dcmitype/StillImage" /><dc:title></dc:title></cc:Work></rdf:RDF></metadata><defs
     id="defs5585"><clipPath
       clipPathUnits="userSpaceOnUse"
       id="clipPath5595"><path
         d="M 0,800 800,800 800,0 0,0 0,800 Z"
         id="path5597"
         inkscape:connector-curvature="0" /></clipPath><clipPath
       clipPathUnits="userSpaceOnUse"
       id="clipPath5603"><path
         d="m 0,800 810.811,0 0,-810.8105 L 0,-10.8105 0,800 Z"
         id="path5605"
         inkscape:connector-curvature="0" /></clipPath><clipPath
       clipPathUnits="userSpaceOnUse"
       id="clipPath5729"><path
         d="M 0,800 800,800 800,0 0,0 0,800 Z"
         id="path5731"
         inkscape:connector-curvature="0" /></clipPath><clipPath
       clipPathUnits="userSpaceOnUse"
       id="clipPath5777"><path
         d="m 409.047,278.461 c -15.634,0 -28.425,-12.791 -28.425,-28.425 l 0,0 0,-55.611 c 0,-15.634 6.899,-28.425 22.534,-28.425 l 0,0 55.034,0 c 15.634,0 22.534,12.791 22.534,28.425 l 0,0 0,55.611 c 0,15.634 -12.791,28.425 -28.425,28.425 l 0,0 -43.252,0 z"
         id="path5779"
         inkscape:connector-curvature="0" /></clipPath><clipPath
       clipPathUnits="userSpaceOnUse"
       id="clipPath5801"><path
         d="m 125.109,329.722 0.985,-135.723 c 0.994,-15.599 6.204,-28.364 21.331,-28.364 l 0,0 60.093,0 c 15.127,0 21.804,12.791 21.804,28.425 l 0,0 0,55.613 c 0,15.633 -11.537,33.059 -25.633,38.724 l 0,0 L 149,310.371 c -11.19,4.497 -20.294,23.876 -23.076,23.876 l 0,0 c -0.723,10e-4 -1.02,-1.308 -0.815,-4.525"
         id="path5803"
         inkscape:connector-curvature="0" /></clipPath><clipPath
       clipPathUnits="userSpaceOnUse"
       id="clipPath5825"><path
         d="M 0,800 800,800 800,0 0,0 0,800 Z"
         id="path5827"
         inkscape:connector-curvature="0" /></clipPath></defs><sodipodi:namedview
     pagecolor="#ffffff"
     bordercolor="#666666"
     borderopacity="1"
     objecttolerance="10"
     gridtolerance="10"
     guidetolerance="10"
     inkscape:pageopacity="0"
     inkscape:pageshadow="2"
     inkscape:window-width="1103"
     inkscape:window-height="662"
     id="namedview5583"
     showgrid="false"
     fit-margin-top="0"
     fit-margin-left="0"
     fit-margin-right="0"
     fit-margin-bottom="0"
     inkscape:zoom="0.46"
     inkscape:cx="484.0529"
     inkscape:cy="292.95625"
     inkscape:window-x="40"
     inkscape:window-y="84"
     inkscape:window-maximized="0"
     inkscape:current-layer="g5589" /><g
     id="g5589"
     inkscape:groupmode="layer"
     inkscape:label="10"
     transform="matrix(1.25,0,0,-1.25,-102.90363,761.10625)"><g
       id="g5725"><g
         id="g5727"
         clip-path="url(#clipPath5729)"><g
           id="g5733"
           transform="translate(99.3159,322.4492)"><path
             d="M 0,0 C 2.162,0 4.222,-0.421 6.123,-1.157 L 26.107,28.425 34.449,14.828 15.671,-10.416 c 0.85,-2.024 1.322,-4.246 1.322,-6.577 0,-9.386 -7.608,-16.993 -16.993,-16.993 -9.385,0 -16.993,7.607 -16.993,16.993 C -16.993,-7.608 -9.385,0 0,0"
             style="fill:#84868f;fill-opacity:1;fill-rule:nonzero;stroke:none"
             id="path5735"
             inkscape:connector-curvature="0" /></g><g
           id="g5737"
           transform="translate(280.6494,376.1182)"><path
             d="M 0,0 C 0,-79.308 64.292,-143.601 143.601,-143.601 222.908,-143.601 287.2,-79.308 287.2,0 287.2,79.309 222.908,143.601 143.601,143.601 64.292,143.601 0,79.309 0,0"
             style="fill:#84868f;fill-opacity:1;fill-rule:nonzero;stroke:none"
             id="path5739"
             inkscape:connector-curvature="0" /></g><g
           id="g5741"
           transform="translate(124.0322,348.6162)"><path
             d="m 0,0 c 0,-86.384 70.026,-113.818 156.41,-113.818 86.384,0 156.409,27.434 156.409,113.818 0,86.381 -70.025,156.409 -156.409,156.409 C 70.026,156.409 0,86.381 0,0"
             style="fill:#84868f;fill-opacity:1;fill-rule:nonzero;stroke:none"
             id="path5743"
             inkscape:connector-curvature="0" /></g><g
           id="g5745"
           transform="translate(201.0415,291.4365)"><path
             d="m 0,0 c 0,-43.342 46.455,-78.475 113.45,-78.475 66.995,0 129.158,35.133 129.158,78.475 0,43.342 -54.31,78.476 -121.305,78.476 C 54.309,78.476 0,43.342 0,0"
             style="fill:#84868f;fill-opacity:1;fill-rule:nonzero;stroke:none"
             id="path5747"
             inkscape:connector-curvature="0" /></g><g
           id="g5749"
           transform="translate(664.584,285.8779)"><path
             d="m 0,0 c 3.957,0 18.219,2.608 26.859,2.608 8.64,0 8.921,-5.287 5.702,-14.093 -9.035,-24.711 -34.684,-71.73 -99.07,-71.73 -74.56,0 -108.135,47.786 -108.135,47.786 0,0 63.843,95.652 69.229,76.702 -14.078,-32.522 -7.963,-84.979 48.42,-84.979 29.549,0 42.736,23.658 47.67,36.284 C -7.528,-2.828 -3.955,0 0,0"
             style="fill:#84868f;fill-opacity:1;fill-rule:nonzero;stroke:none"
             id="path5751"
             inkscape:connector-curvature="0" /></g><g
           id="g5753"
           transform="translate(380.6221,194.4248)"><path
             d="m 0,0 c 0,-15.634 6.899,-28.425 22.534,-28.425 l 55.034,0 c 15.634,0 22.535,12.791 22.535,28.425 l 0,55.611 c 0,15.634 -12.791,28.425 -28.425,28.425 l -43.253,0 C 12.79,84.036 0,71.245 0,55.611 L 0,0 Z"
             style="fill:#84868f;fill-opacity:1;fill-rule:nonzero;stroke:none"
             id="path5755"
             inkscape:connector-curvature="0" /></g><g
           id="g5757"
           transform="translate(126.0942,193.999)"><path
             d="m 0,0 c 0.994,-15.6 6.204,-28.364 21.332,-28.364 l 60.091,0 c 15.127,0 21.805,12.791 21.805,28.425 l 0,55.613 c 0,15.634 -11.538,33.059 -25.634,38.723 L 22.906,116.372 C 8.808,122.038 -1.977,151.323 -0.985,135.724 L 0,0 Z"
             style="fill:#84868f;fill-opacity:1;fill-rule:nonzero;stroke:none"
             id="path5759"
             inkscape:connector-curvature="0" /></g><g
           id="g5761"
           transform="translate(480.1699,318.9346)"><path
             d="m 0,0 c 0,-9.007 7.304,-16.311 16.312,-16.311 9.005,0 16.31,7.304 16.31,16.311 0,9.008 -7.305,16.309 -16.31,16.309 C 7.304,16.309 0,9.008 0,0"
             style="fill:#393c40;fill-opacity:1;fill-rule:nonzero;stroke:none"
             id="path5763"
             inkscape:connector-curvature="0" /></g><g
           id="g5765"
           transform="translate(485.8604,325.7783)"><path
             d="m 0,0 c 0,-4.979 4.037,-9.017 9.018,-9.017 4.979,0 9.017,4.038 9.017,9.017 0,4.98 -4.038,9.018 -9.017,9.018 C 4.037,9.018 0,4.98 0,0"
             style="fill:#ffffff;fill-opacity:1;fill-rule:nonzero;stroke:none"
             id="path5767"
             inkscape:connector-curvature="0" /></g><g
           id="g5769"
           transform="translate(428.7578,284.1836)"><path
             d="m 0,0 c -12.68,-18.438 -30.095,-30.645 -50.348,-33.081 -47.443,-5.71 -97.335,43.772 -105.451,111.238 -8.118,67.467 28.609,127.375 76.052,133.083 27.983,3.367 57.15,-14.985 76.881,-43.13 2.819,-4.021 7.848,-14.453 7.848,-23.261 l 0,-126.409 C 4.982,5.204 1.754,2.549 0,0"
             style="fill:#92949b;fill-opacity:1;fill-rule:nonzero;stroke:none"
             id="path5771"
             inkscape:connector-curvature="0" /></g></g></g><g
       id="g5773"><g
         id="g5775"
         clip-path="url(#clipPath5777)"><g
           id="g5781"
           transform="translate(455.5137,172.5654)"><path
             d="m 0,0 c 0,-7.971 6.462,-14.431 14.432,-14.431 7.97,0 14.431,6.46 14.431,14.431 0,7.97 -6.461,14.432 -14.431,14.432 C 6.462,14.432 0,7.97 0,0"
             style="fill:#e6dccf;fill-opacity:1;fill-rule:nonzero;stroke:none"
             id="path5783"
             inkscape:connector-curvature="0" /></g><g
           id="g5785"
           transform="translate(430.6729,172.5654)"><path
             d="m 0,0 c 0,-7.971 6.461,-14.431 14.432,-14.431 7.97,0 14.431,6.46 14.431,14.431 0,7.97 -6.461,14.432 -14.431,14.432 C 6.461,14.432 0,7.97 0,0"
             style="fill:#e6dccf;fill-opacity:1;fill-rule:nonzero;stroke:none"
             id="path5787"
             inkscape:connector-curvature="0" /></g><g
           id="g5789"
           transform="translate(405.833,172.5654)"><path
             d="m 0,0 c 0,-7.971 6.461,-14.431 14.432,-14.431 7.968,0 14.431,6.46 14.431,14.431 0,7.97 -6.463,14.432 -14.431,14.432 C 6.461,14.432 0,7.97 0,0"
             style="fill:#e6dccf;fill-opacity:1;fill-rule:nonzero;stroke:none"
             id="path5791"
             inkscape:connector-curvature="0" /></g><g
           id="g5793"
           transform="translate(380.9927,172.5654)"><path
             d="m 0,0 c 0,-7.971 6.461,-14.431 14.431,-14.431 7.97,0 14.432,6.46 14.432,14.431 0,7.97 -6.462,14.432 -14.432,14.432 C 6.461,14.432 0,7.97 0,0"
             style="fill:#e6dccf;fill-opacity:1;fill-rule:nonzero;stroke:none"
             id="path5795"
             inkscape:connector-curvature="0" /></g></g></g><g
       id="g5797"><g
         id="g5799"
         clip-path="url(#clipPath5801)"><g
           id="g5805"
           transform="translate(201.2173,172.5654)"><path
             d="m 0,0 c 0,-7.971 6.461,-14.431 14.432,-14.431 7.97,0 14.431,6.46 14.431,14.431 0,7.97 -6.461,14.432 -14.431,14.432 C 6.461,14.432 0,7.97 0,0"
             style="fill:#e6dccf;fill-opacity:1;fill-rule:nonzero;stroke:none"
             id="path5807"
             inkscape:connector-curvature="0" /></g><g
           id="g5809"
           transform="translate(176.3765,172.5654)"><path
             d="m 0,0 c 0,-7.971 6.461,-14.431 14.432,-14.431 7.97,0 14.431,6.46 14.431,14.431 0,7.97 -6.461,14.432 -14.431,14.432 C 6.461,14.432 0,7.97 0,0"
             style="fill:#e6dccf;fill-opacity:1;fill-rule:nonzero;stroke:none"
             id="path5811"
             inkscape:connector-curvature="0" /></g><g
           id="g5813"
           transform="translate(151.5371,172.5654)"><path
             d="m 0,0 c 0,-7.971 6.461,-14.431 14.431,-14.431 7.97,0 14.432,6.46 14.432,14.431 0,7.97 -6.462,14.432 -14.432,14.432 C 6.461,14.432 0,7.97 0,0"
             style="fill:#e6dccf;fill-opacity:1;fill-rule:nonzero;stroke:none"
             id="path5815"
             inkscape:connector-curvature="0" /></g><g
           id="g5817"
           transform="translate(126.6963,172.5654)"><path
             d="m 0,0 c 0,-7.971 6.461,-14.431 14.432,-14.431 7.97,0 14.431,6.46 14.431,14.431 0,7.97 -6.461,14.432 -14.431,14.432 C 6.461,14.432 0,7.97 0,0"
             style="fill:#e6dccf;fill-opacity:1;fill-rule:nonzero;stroke:none"
             id="path5819"
             inkscape:connector-curvature="0" /></g></g></g><g
       id="g5821"><g
         id="g5823"
         clip-path="url(#clipPath5825)"><g
           id="g5829"
           transform="translate(628.6602,391.3066)"><path
             d="m 0,0 c 0,-3.059 0.485,-5.997 1.391,-8.74 2.707,-12.145 17.323,-26.051 30.016,-38.745 12.694,-12.694 23.926,-13.64 37.922,0.356 13.993,13.995 26.925,26.407 29.59,38.398 0.9,2.742 1.391,5.681 1.391,8.737 0,10.695 -5.917,19.981 -14.651,24.801 -4.058,2.235 -8.724,3.527 -13.678,3.527 -8.797,0 -16.626,-3.998 -21.841,-10.266 -5.176,6.268 -13.051,10.266 -21.788,10.266 -4.977,0 -9.639,-1.292 -13.694,-3.527 C 5.92,19.987 0.003,10.701 0,0"
             style="fill:#c42319;fill-opacity:1;fill-rule:nonzero;stroke:none"
             id="path5831"
             inkscape:connector-curvature="0" /></g><g
           id="g5833"
           transform="translate(650.8096,593.064)"><path
             d="m 0,0 c 0,-1.708 0.271,-3.348 0.776,-4.881 1.512,-6.781 9.673,-14.546 16.762,-21.634 7.087,-7.088 13.359,-7.616 21.174,0.199 7.814,7.815 15.033,14.745 16.522,21.441 0.503,1.53 0.777,3.172 0.777,4.878 0,5.972 -3.303,11.158 -8.18,13.849 -2.267,1.247 -4.872,1.969 -7.64,1.969 -4.912,0 -9.281,-2.232 -12.194,-5.733 -2.889,3.501 -7.288,5.733 -12.167,5.733 -2.777,0 -5.381,-0.722 -7.645,-1.969 C 3.305,11.161 0.001,5.975 0,0"
             style="fill:#e32a1f;fill-opacity:1;fill-rule:nonzero;stroke:none"
             id="path5835"
             inkscape:connector-curvature="0" /></g><g
           id="g5837"
           transform="translate(641.3369,502.5469)"><path
             d="m 0,0 c 0,-2.286 0.363,-4.481 1.04,-6.532 2.023,-9.075 12.943,-19.466 22.43,-28.952 9.484,-9.484 17.878,-10.191 28.336,0.267 10.458,10.457 20.12,19.733 22.111,28.693 0.673,2.048 1.039,4.245 1.039,6.527 0,7.994 -4.421,14.932 -10.947,18.534 -3.033,1.669 -6.521,2.635 -10.221,2.635 -6.574,0 -12.424,-2.987 -16.321,-7.671 -3.866,4.684 -9.752,7.671 -16.282,7.671 -3.718,0 -7.202,-0.966 -10.232,-2.635 C 4.423,14.935 0.002,7.997 0,0"
             style="fill:#d3251b;fill-opacity:1;fill-rule:nonzero;stroke:none"
             id="path5839"
             inkscape:connector-curvature="0" /></g></g></g></g></svg>