<?xml version="1.0" encoding="UTF-8" standalone="no"?>
<!-- Created with Inkscape (http://www.inkscape.org/) -->

<svg
   xmlns:dc="http://purl.org/dc/elements/1.1/"
   xmlns:cc="http://creativecommons.org/ns#"
   xmlns:rdf="http://www.w3.org/1999/02/22-rdf-syntax-ns#"
   xmlns:svg="http://www.w3.org/2000/svg"
   xmlns="http://www.w3.org/2000/svg"
   xmlns:sodipodi="http://sodipodi.sourceforge.net/DTD/sodipodi-0.dtd"
   xmlns:inkscape="http://www.inkscape.org/namespaces/inkscape"
   width="52.594471mm"
   height="76.40155mm"
   viewBox="0 0 186.35836 270.71415"
   id="svg5102"
   version="1.1"
   inkscape:version="0.91 r13725"
   sodipodi:docname="заяц.svg"
   inkscape:export-filename="/Users/ivan/projects/duolingo/img/заяц.png"
   inkscape:export-xdpi="90"
   inkscape:export-ydpi="90">
  <defs
     id="defs5104">
    <clipPath
       clipPathUnits="userSpaceOnUse"
       id="clipPath3699">
      <path
         d="m 446.88,546.614 143.073,0 0,-23.325 -143.073,0 0,23.325 z"
         id="path3701"
         inkscape:connector-curvature="0" />
    </clipPath>
  </defs>
  <sodipodi:namedview
     id="base"
     pagecolor="#ffffff"
     bordercolor="#666666"
     borderopacity="1.0"
     inkscape:pageopacity="0.0"
     inkscape:pageshadow="2"
     inkscape:zoom="1.4"
     inkscape:cx="-22.177957"
     inkscape:cy="135.35707"
     inkscape:document-units="px"
     inkscape:current-layer="layer1"
     showgrid="false"
     fit-margin-top="0"
     fit-margin-left="0"
     fit-margin-right="0"
     fit-margin-bottom="0"
     inkscape:window-width="1440"
     inkscape:window-height="851"
     inkscape:window-x="0"
     inkscape:window-y="1"
     inkscape:window-maximized="1" />
  <metadata
     id="metadata5107">
    <rdf:RDF>
      <cc:Work
         rdf:about="">
        <dc:format>image/svg+xml</dc:format>
        <dc:type
           rdf:resource="http://purl.org/dc/dcmitype/StillImage" />
        <dc:title></dc:title>
      </cc:Work>
    </rdf:RDF>
  </metadata>
  <g
     inkscape:label="Layer 1"
     inkscape:groupmode="layer"
     id="layer1"
     transform="translate(-281.82081,-397.00513)">
    <g
       transform="matrix(1.25,0,0,-1.25,-269.26157,1321.8309)"
       id="g3695">
      <g
         id="g3697" />
      <g
         id="g3703">
        <g
           id="g3705"
           clip-path="url(#clipPath3699)">
          <g
             id="g3707"
             transform="translate(589.9526,534.9513)">
            <path
               inkscape:connector-curvature="0"
               id="path3709"
               style="fill:#f1f2f2;fill-opacity:1;fill-rule:nonzero;stroke:none"
               d="m 0,0 c 0,-6.441 -32.028,-11.662 -71.536,-11.662 -39.509,0 -71.537,5.221 -71.537,11.662 0,6.441 32.028,11.662 71.537,11.662 C -32.028,11.662 0,6.441 0,0" />
          </g>
        </g>
      </g>
    </g>
    <g
       transform="matrix(1.25,0,0,-1.25,332.33443,618.81591)"
       id="g3759">
      <path
         inkscape:connector-curvature="0"
         id="path3761"
         style="fill:#ffd69b;fill-opacity:1;fill-rule:nonzero;stroke:none"
         d="M 0,0 C 0,0 -12.583,13.264 -23.467,-0.68 -34.35,-14.624 -18.705,-29.815 -3.401,-25.62 11.903,-21.426 0,0 0,0" />
    </g>
    <g
       transform="matrix(1.25,0,0,-1.25,334.88506,642.33904)"
       id="g3763">
      <path
         inkscape:connector-curvature="0"
         id="path3765"
         style="fill:#fbb87b;fill-opacity:1;fill-rule:nonzero;stroke:none"
         d="m 0,0 c -14.072,-3.857 -28.414,8.675 -22.175,21.558 -1.118,-0.895 -2.234,-2.013 -3.332,-3.42 -10.883,-13.944 4.761,-29.134 20.066,-24.94 4.673,1.281 6.801,4.171 7.514,7.564 C 1.44,0.472 0.763,0.209 0,0" />
    </g>
    <g
       transform="matrix(1.25,0,0,-1.25,414.39018,568.95441)"
       id="g3767">
      <path
         inkscape:connector-curvature="0"
         id="path3769"
         style="fill:#fbb87b;fill-opacity:1;fill-rule:nonzero;stroke:none"
         d="M 0,0 C -4.33,-3.688 11.562,-11.187 18.567,-8.574 25.571,-5.96 24.966,1.499 21.371,3.06 17.775,4.621 3.998,3.405 0,0" />
    </g>
    <g
       transform="matrix(1.25,0,0,-1.25,404.66056,499.22628)"
       id="g3771">
      <path
         inkscape:connector-curvature="0"
         id="path3773"
         style="fill:#f79261;fill-opacity:1;fill-rule:nonzero;stroke:none"
         d="m 0,0 c 0,0 -11.936,76.479 -40.098,81.19 -28.163,4.711 -26.788,-20.154 -15.859,-31.16 10.93,-11.006 39.86,-37.093 39.083,-50.252 L 0,0 Z" />
    </g>
    <g
       transform="matrix(1.25,0,0,-1.25,394.96844,498.36578)"
       id="g3775">
      <path
         inkscape:connector-curvature="0"
         id="path3777"
         style="fill:#fbb87b;fill-opacity:1;fill-rule:nonzero;stroke:none"
         d="m 0,0 c 0,0 -48.52,60.31 -75.274,50.334 -26.754,-9.976 -13.15,-30.835 1.814,-34.916 14.964,-4.082 53.054,-12.244 58.949,-24.034 L 0,0 Z" />
    </g>
    <g
       transform="matrix(1.25,0,0,-1.25,424.44306,633.26991)"
       id="g3779">
      <path
         inkscape:connector-curvature="0"
         id="path3781"
         style="fill:#ffd69b;fill-opacity:1;fill-rule:nonzero;stroke:none"
         d="M 0,0 C 0,0 11.499,41.624 2.683,64.534 11.818,68.281 22.746,81.479 23.126,90.239 23.737,104.29 -5.895,115.632 -26.3,112.005 -45.448,108.6 -47.027,90.824 -45.276,78.904 -47.189,68.568 -52.551,44.838 -63.03,34.009 -76.634,19.952 -82.529,-4.988 -77.088,-14.057 c 5.442,-9.07 80.262,-5.442 90.692,-5.442 C 24.034,-19.499 15.418,6.802 0,0" />
    </g>
    <g
       transform="matrix(1.25,0,0,-1.25,457.49631,514.87454)"
       id="g3783">
      <path
         inkscape:connector-curvature="0"
         id="path3785"
         style="fill:#502611;fill-opacity:1;fill-rule:nonzero;stroke:none"
         d="m 0,0 c 0,-2.63 -2.132,-4.761 -4.761,-4.761 -2.63,0 -4.762,2.131 -4.762,4.761 0,2.63 2.132,4.761 4.762,4.761 C -2.132,4.761 0,2.63 0,0" />
    </g>
    <g
       transform="matrix(1.25,0,0,-1.25,411.84219,509.58916)"
       id="g3787">
      <path
         inkscape:connector-curvature="0"
         id="path3789"
         style="fill:#502611;fill-opacity:1;fill-rule:nonzero;stroke:none"
         d="m 0,0 c 0,-2.927 -2.373,-5.3 -5.3,-5.3 -2.927,0 -5.3,2.373 -5.3,5.3 0,2.927 2.373,5.3 5.3,5.3 C -2.373,5.3 0,2.927 0,0" />
    </g>
    <g
       transform="matrix(1.25,0,0,-1.25,406.03418,507.13891)"
       id="g3791">
      <path
         inkscape:connector-curvature="0"
         id="path3793"
         style="fill:#ffffff;fill-opacity:1;fill-rule:nonzero;stroke:none"
         d="m 0,0 c 0,-0.882 -0.715,-1.597 -1.597,-1.597 -0.882,0 -1.597,0.715 -1.597,1.597 0,0.882 0.715,1.597 1.597,1.597 C -0.715,1.597 0,0.882 0,0" />
    </g>
    <g
       transform="matrix(1.25,0,0,-1.25,438.94681,519.19928)"
       id="g3795">
      <path
         inkscape:connector-curvature="0"
         id="path3797"
         style="fill:#502611;fill-opacity:1;fill-rule:nonzero;stroke:none"
         d="m 0,0 c -7.146,-1.115 -14.301,-0.98 -21.472,-1.655 -0.58,-0.055 -0.609,-1.041 -0.041,-1.142 7.223,-1.287 14.727,-0.117 21.82,1.441 C 1.192,-1.161 0.875,0.136 0,0" />
    </g>
    <g
       transform="matrix(1.25,0,0,-1.25,440.90856,524.07766)"
       id="g3799">
      <path
         inkscape:connector-curvature="0"
         id="path3801"
         style="fill:#502611;fill-opacity:1;fill-rule:nonzero;stroke:none"
         d="m 0,0 c -6.346,-3.469 -13.124,-5.766 -19.642,-8.83 -0.528,-0.247 -0.221,-1.185 0.348,-1.087 7.232,1.235 13.896,4.877 20.042,8.745 C 1.515,-0.689 0.777,0.425 0,0" />
    </g>
    <g
       transform="matrix(1.25,0,0,-1.25,444.16743,526.58566)"
       id="g3803">
      <path
         inkscape:connector-curvature="0"
         id="path3805"
         style="fill:#502611;fill-opacity:1;fill-rule:nonzero;stroke:none"
         d="m 0,0 c -4.96,-5.264 -10.692,-9.547 -15.941,-14.48 -0.425,-0.398 0.157,-1.194 0.668,-0.926 6.493,3.415 11.702,8.942 16.347,14.524 C 1.654,-0.186 0.607,0.645 0,0" />
    </g>
    <g
       transform="matrix(1.25,0,0,-1.25,373.99593,492.69753)"
       id="g3807">
      <path
         inkscape:connector-curvature="0"
         id="path3809"
         style="fill:#f48989;fill-opacity:1;fill-rule:nonzero;stroke:none"
         d="M 0,0 C 5.422,0.651 -28.115,35.823 -44.892,37.184 -61.67,38.544 -61.67,24.033 -53.962,20.406 -46.253,16.778 -11.336,-1.36 0,0" />
    </g>
    <g
       transform="matrix(1.25,0,0,-1.25,445.14631,642.45816)"
       id="g3811">
      <path
         inkscape:connector-curvature="0"
         id="path3813"
         style="fill:#fbb87b;fill-opacity:1;fill-rule:nonzero;stroke:none"
         d="m 0,0 c 0.016,-0.319 0.077,-0.692 0.216,-1.152 2.04,-6.802 -5.102,-8.842 -38.431,-6.462 -33.329,2.381 -30.609,26.868 -19.045,42.172 11.563,15.304 16.664,38.091 6.121,48.974 -10.543,10.883 2.381,33.669 2.381,33.669 l 0.034,0.437 C -62.301,111.95 -63.39,96.814 -61.839,86.254 -63.751,75.918 -69.114,52.189 -79.593,41.36 -93.197,27.303 -99.092,2.363 -93.65,-6.707 c 5.441,-9.069 80.262,-5.441 90.691,-5.441 C 2.21,-12.148 2.697,-5.689 0,0" />
    </g>
    <g
       transform="matrix(1.25,0,0,-1.25,424.44306,633.26991)"
       id="g3815">
      <path
         inkscape:connector-curvature="0"
         id="path3817"
         style="fill:#fbb87b;fill-opacity:1;fill-rule:nonzero;stroke:none"
         d="M 0,0 C 0,0 0.44,1.599 1.079,4.319 -0.765,3.44 -2.66,2.524 -4.308,1.7 -9.749,-1.02 -11.11,-8.502 -11.11,-8.502 -8.049,-4.081 0,0 0,0" />
    </g>
    <g
       transform="matrix(1.25,0,0,-1.25,429.95343,559.87566)"
       id="g3819">
      <path
         inkscape:connector-curvature="0"
         id="path3821"
         style="fill:#fbb87b;fill-opacity:1;fill-rule:nonzero;stroke:none"
         d="m 0,0 c -0.461,2.035 -1.022,3.992 -1.725,5.819 0,0 -11.072,-5.018 -20.595,-3.658 0,0 8.228,-5.348 22.32,-2.161" />
    </g>
    <g
       transform="matrix(1.25,0,0,-1.25,406.23581,579.26453)"
       id="g3823">
      <path
         inkscape:connector-curvature="0"
         id="path3825"
         style="fill:#fbb87b;fill-opacity:1;fill-rule:nonzero;stroke:none"
         d="m 0,0 c -5.209,-3.473 8.817,-18.436 16.432,-17.233 7.615,1.202 8.817,11.221 5.611,14.428 C 18.836,0.401 4.809,3.206 0,0" />
    </g>
  </g>
</svg>
