<?xml version="1.0" encoding="UTF-8" standalone="no"?>
<!-- Created with Inkscape (http://www.inkscape.org/) -->

<svg
   xmlns:dc="http://purl.org/dc/elements/1.1/"
   xmlns:cc="http://creativecommons.org/ns#"
   xmlns:rdf="http://www.w3.org/1999/02/22-rdf-syntax-ns#"
   xmlns:svg="http://www.w3.org/2000/svg"
   xmlns="http://www.w3.org/2000/svg"
   xmlns:sodipodi="http://sodipodi.sourceforge.net/DTD/sodipodi-0.dtd"
   xmlns:inkscape="http://www.inkscape.org/namespaces/inkscape"
   width="68.601547mm"
   height="45.765789mm"
   viewBox="0 0 243.07635 162.16224"
   id="svg4936"
   version="1.1"
   inkscape:version="0.91 r13725"
   sodipodi:docname="еж.svg"
   inkscape:export-filename="/Users/ivan/projects/duolingo/img/еж.png"
   inkscape:export-xdpi="90"
   inkscape:export-ydpi="90">
  <defs
     id="defs4938">
    <clipPath
       clipPathUnits="userSpaceOnUse"
       id="clipPath3523">
      <path
         d="m 79.4644,544.67 173.6366,0 0,-29.804 -173.6366,0 0,29.804 z"
         id="path3525"
         inkscape:connector-curvature="0" />
    </clipPath>
  </defs>
  <sodipodi:namedview
     id="base"
     pagecolor="#ffffff"
     bordercolor="#666666"
     borderopacity="1.0"
     inkscape:pageopacity="0.0"
     inkscape:pageshadow="2"
     inkscape:zoom="0.98994949"
     inkscape:cx="3.3151603"
     inkscape:cy="70.450327"
     inkscape:document-units="px"
     inkscape:current-layer="layer1"
     showgrid="false"
     fit-margin-top="0"
     fit-margin-left="0"
     fit-margin-right="0"
     fit-margin-bottom="0"
     inkscape:window-width="1440"
     inkscape:window-height="851"
     inkscape:window-x="0"
     inkscape:window-y="1"
     inkscape:window-maximized="1" />
  <metadata
     id="metadata4941">
    <rdf:RDF>
      <cc:Work
         rdf:about="">
        <dc:format>image/svg+xml</dc:format>
        <dc:type
           rdf:resource="http://purl.org/dc/dcmitype/StillImage" />
        <dc:title></dc:title>
      </cc:Work>
    </rdf:RDF>
  </metadata>
  <g
     inkscape:label="Layer 1"
     inkscape:groupmode="layer"
     id="layer1"
     transform="translate(-127.733,-76.99537)">
    <g
       transform="matrix(1.25,0,0,-1.25,31.360954,882.74024)"
       id="g3519">
      <g
         id="g3521" />
      <g
         id="g3527">
        <g
           id="g3529"
           clip-path="url(#clipPath3523)">
          <g
             id="g3531"
             transform="translate(253.1014,529.7681)">
            <path
               inkscape:connector-curvature="0"
               id="path3533"
               style="fill:#f1f2f2;fill-opacity:1;fill-rule:nonzero;stroke:none"
               d="m 0,0 c 0,-8.23 -38.87,-14.902 -86.818,-14.902 -47.949,0 -86.819,6.672 -86.819,14.902 0,8.23 38.87,14.902 86.819,14.902 C -38.87,14.902 0,8.23 0,0" />
          </g>
        </g>
      </g>
    </g>
    <g
       transform="matrix(1.25,0,0,-1.25,299.34335,194.02349)"
       id="g3711">
      <path
         inkscape:connector-curvature="0"
         id="path3713"
         style="fill:#fdc37f;fill-opacity:1;fill-rule:nonzero;stroke:none"
         d="m 0,0 c 0,0 -87.702,-16.652 -122.117,-5.181 -23.278,7.76 63.279,33.305 63.279,33.305 L -10.731,20.353 0,0 Z" />
    </g>
    <g
       transform="matrix(1.25,0,0,-1.25,261.41325,195.87374)"
       id="g3715">
      <path
         inkscape:connector-curvature="0"
         id="path3717"
         style="fill:#fdc37f;fill-opacity:1;fill-rule:nonzero;stroke:none"
         d="m 0,0 c 0,0 2.96,-13.322 6.661,-16.652 3.7,-3.331 9.251,-0.37 9.251,2.59 0,2.96 -5.551,17.022 -5.551,17.022 L 0,0 Z" />
    </g>
    <g
       transform="matrix(1.25,0,0,-1.25,236.43485,200.03687)"
       id="g3719">
      <path
         inkscape:connector-curvature="0"
         id="path3721"
         style="fill:#fdc37f;fill-opacity:1;fill-rule:nonzero;stroke:none"
         d="m 0,0 c 0,0 2.96,-13.322 6.661,-16.652 3.7,-3.331 9.251,-0.37 9.251,2.59 0,2.96 -5.551,17.022 -5.551,17.022 L 0,0 Z" />
    </g>
    <g
       transform="matrix(1.25,0,0,-1.25,188.49615,198.79624)"
       id="g3723">
      <path
         inkscape:connector-curvature="0"
         id="path3725"
         style="fill:#fdc37f;fill-opacity:1;fill-rule:nonzero;stroke:none"
         d="m 0,0 c 0,0 -0.638,-13.632 2.059,-17.817 2.697,-4.184 8.83,-2.784 9.607,0.073 0.776,2.857 -0.891,17.882 -0.891,17.882 L 0,0 Z" />
    </g>
    <g
       transform="matrix(1.25,0,0,-1.25,163.30035,196.26074)"
       id="g3727">
      <path
         inkscape:connector-curvature="0"
         id="path3729"
         style="fill:#fdc37f;fill-opacity:1;fill-rule:nonzero;stroke:none"
         d="m 0,0 c 0,0 -0.638,-13.632 2.059,-17.816 2.697,-4.185 8.83,-2.784 9.607,0.072 0.777,2.857 -0.891,17.882 -0.891,17.882 L 0,0 Z" />
    </g>
    <g
       transform="matrix(1.25,0,0,-1.25,324.32175,143.14162)"
       id="g3731">
      <path
         inkscape:connector-curvature="0"
         id="path3733"
         style="fill:#633c16;fill-opacity:1;fill-rule:nonzero;stroke:none"
         d="m 0,0 c 0,0 -9.621,35.525 -29.974,47.736 0,0 -5.181,-4.44 -1.85,-17.762 0,0 -18.133,22.573 -38.856,22.943 0,0 -4.07,-11.101 1.851,-22.203 0,0 -21.833,19.243 -48.847,15.912 0,0 0.74,-14.432 11.102,-21.463 0,0 -28.124,4.811 -43.296,-2.59 0,0 1.48,-12.582 16.282,-16.652 0,0 -15.542,-4.441 -22.203,-20.353 0,0 6.291,-5.181 15.912,-4.441 0,0 -15.172,-11.841 -17.392,-25.533 0,0 7.031,-10.362 25.533,1.11 18.503,11.472 89.922,17.022 103.244,10.732 C -15.172,-38.855 -0.37,-4.441 0,0" />
    </g>
    <g
       transform="matrix(1.25,0,0,-1.25,320.15875,146.37936)"
       id="g3735">
      <path
         inkscape:connector-curvature="0"
         id="path3737"
         style="fill:#55310c;fill-opacity:1;fill-rule:nonzero;stroke:none"
         d="m 0,0 c -0.74,19.612 -23.313,34.785 -23.313,34.785 -3.701,-3.701 -2.591,-18.873 -2.591,-18.873 -8.14,18.132 -31.824,24.793 -31.824,24.793 -4.441,-11.841 1.11,-27.383 1.11,-27.383 -16.282,20.352 -37.005,21.093 -37.005,21.093 0.741,-11.472 12.212,-23.313 12.212,-23.313 -18.873,11.841 -44.776,7.4 -44.776,7.4 3.331,-9.991 19.242,-20.352 19.242,-20.352 -17.392,3.33 -24.053,-5.921 -24.053,-5.921 6.661,-4.811 17.763,-8.881 17.763,-8.881 -19.243,-1.851 -31.455,-22.203 -31.455,-22.203 4.145,-1.707 11.162,-1.968 15.586,-2.265 0.233,0.14 0.46,0.268 0.697,0.414 18.502,11.472 89.922,17.023 103.244,10.732 0.408,-0.193 0.818,-0.346 1.229,-0.464 C -13.553,-23.756 0.468,-12.399 0,0" />
    </g>
    <g
       transform="matrix(1.25,0,0,-1.25,317.38335,131.57761)"
       id="g3739">
      <path
         inkscape:connector-curvature="0"
         id="path3741"
         style="fill:#ffd69b;fill-opacity:1;fill-rule:nonzero;stroke:none"
         d="m 0,0 c -14.426,13.872 -33.86,-16.652 -25.533,-41.076 8.326,-24.423 56.617,4.996 65.498,16.653 0,0 -25.533,10.546 -39.965,24.423" />
    </g>
    <g
       transform="matrix(1.25,0,0,-1.25,367.34015,162.10674)"
       id="g3743">
      <path
         inkscape:connector-curvature="0"
         id="path3745"
         style="fill:#fdc37f;fill-opacity:1;fill-rule:nonzero;stroke:none"
         d="M 0,0 C 0,0 -0.702,0.291 -1.921,0.829 -18.003,-8.05 -39.749,-12.606 -53.658,-1.48 -62.534,5.622 -61.694,14.583 -59.6,20.622 -66.295,11.876 -70.053,-3.293 -65.499,-16.652 -57.173,-41.076 -8.881,-11.657 0,0" />
    </g>
    <g
       transform="matrix(1.25,0,0,-1.25,370.80935,158.63749)"
       id="g3747">
      <path
         inkscape:connector-curvature="0"
         id="path3749"
         style="fill:#502611;fill-opacity:1;fill-rule:nonzero;stroke:none"
         d="m 0,0 c 0,-3.372 -2.734,-6.106 -6.106,-6.106 -3.372,0 -6.106,2.734 -6.106,6.106 0,3.372 2.734,6.106 6.106,6.106 C -2.734,6.106 0,3.372 0,0" />
    </g>
    <g
       transform="matrix(1.25,0,0,-1.25,316.16915,148.31661)"
       id="g3751">
      <path
         inkscape:connector-curvature="0"
         id="path3753"
         style="fill:#502611;fill-opacity:1;fill-rule:nonzero;stroke:none"
         d="m 0,0 c 0,-2.797 -2.268,-5.065 -5.065,-5.065 -2.797,0 -5.065,2.268 -5.065,5.065 0,2.797 2.268,5.065 5.065,5.065 C -2.268,5.065 0,2.797 0,0" />
    </g>
    <g
       transform="matrix(1.25,0,0,-1.25,310.61835,145.97487)"
       id="g3755">
      <path
         inkscape:connector-curvature="0"
         id="path3757"
         style="fill:#ffffff;fill-opacity:1;fill-rule:nonzero;stroke:none"
         d="m 0,0 c 0,-0.843 -0.683,-1.526 -1.527,-1.526 -0.843,0 -1.526,0.683 -1.526,1.526 0,0.843 0.683,1.526 1.526,1.526 C -0.683,1.526 0,0.843 0,0" />
    </g>
  </g>
</svg>
