<?xml version="1.0" encoding="UTF-8" standalone="no"?>
<!-- Created with Inkscape (http://www.inkscape.org/) -->

<svg
   xmlns:dc="http://purl.org/dc/elements/1.1/"
   xmlns:cc="http://creativecommons.org/ns#"
   xmlns:rdf="http://www.w3.org/1999/02/22-rdf-syntax-ns#"
   xmlns:svg="http://www.w3.org/2000/svg"
   xmlns="http://www.w3.org/2000/svg"
   xmlns:sodipodi="http://sodipodi.sourceforge.net/DTD/sodipodi-0.dtd"
   xmlns:inkscape="http://www.inkscape.org/namespaces/inkscape"
   id="svg4308"
   version="1.1"
   inkscape:version="0.91 r13725"
   xml:space="preserve"
   width="333.6803"
   height="168.5835"
   viewBox="0 0 333.6803 168.5835"
   sodipodi:docname="tortoise.svg"><metadata
     id="metadata4314"><rdf:RDF><cc:Work
         rdf:about=""><dc:format>image/svg+xml</dc:format><dc:type
           rdf:resource="http://purl.org/dc/dcmitype/StillImage" /><dc:title></dc:title></cc:Work></rdf:RDF></metadata><defs
     id="defs4312"><clipPath
       clipPathUnits="userSpaceOnUse"
       id="clipPath4332"><path
         d="M 0,800 800,800 800,0 0,0 0,800 Z"
         id="path4334"
         inkscape:connector-curvature="0" /></clipPath><clipPath
       clipPathUnits="userSpaceOnUse"
       id="clipPath4364"><path
         d="m 534.944,198.316 c 30.53,8.364 35.713,-42.37 46.004,-64.824 l 0,0 c 9.201,-20.075 44.331,-71.097 104.973,-44.331 l 0,0 c 29.862,13.18 38.325,37.715 39.224,59.229 l 0,0 c -36.847,-11.338 -50.983,12.335 -61.808,23.16 l 0,0 c -10.874,10.874 -43.494,55.205 -80.716,56.041 l 0,0 c -0.511,0.012 -1.013,0.017 -1.514,0.017 l 0,0 c -35.989,-0.002 -46.163,-29.292 -46.163,-29.292 m 184.017,-8.783 c 0,0 7.11,-18.967 6.184,-41.143 l 0,0 c 0.167,0.052 0.338,0.105 0.506,0.158 l 0,0 c 37.222,11.71 40.149,25.511 40.149,25.511 l 0,0 c 0,0 -19.737,15.788 -41.592,15.789 l 0,0 c -1.74,10e-4 -3.49,-0.099 -5.247,-0.315"
         id="path4366"
         inkscape:connector-curvature="0" /></clipPath><clipPath
       clipPathUnits="userSpaceOnUse"
       id="clipPath4388"><path
         d="M 0,800 800,800 800,0 0,0 0,800 Z"
         id="path4390"
         inkscape:connector-curvature="0" /></clipPath><clipPath
       clipPathUnits="userSpaceOnUse"
       id="clipPath4404"><path
         d="m 621.933,105.053 c 25.093,-29.693 66.079,-10.456 86.154,23.42 l 0,0 c 0,0 -50.605,-0.836 -79.881,63.987 l 0,0 c 0,0 -31.366,-57.714 -6.273,-87.407"
         id="path4406"
         inkscape:connector-curvature="0" /></clipPath><clipPath
       clipPathUnits="userSpaceOnUse"
       id="clipPath4436"><path
         d="M 0,800 800,800 800,0 0,0 0,800 Z"
         id="path4438"
         inkscape:connector-curvature="0" /></clipPath><clipPath
       clipPathUnits="userSpaceOnUse"
       id="clipPath4496"><path
         d="m 77.327,137.045 c 0,0 0.289,-35.453 0,-39.266 l 0,0 C 77.038,93.966 60.847,55.225 61.715,52.333 l 0,0 c 0.867,-2.891 10.697,-8.384 11.275,-5.782 l 0,0 c 0.579,2.602 1.703,10.119 4.466,20.238 l 0,0 c 2.763,10.12 19.242,39.899 19.242,39.899 l 0,0 11.963,37.296 -31.334,-6.939 z"
         id="path4498"
         inkscape:connector-curvature="0" /></clipPath><clipPath
       clipPathUnits="userSpaceOnUse"
       id="clipPath4508"><path
         d="M 0,800 800,800 800,0 0,0 0,800 Z"
         id="path4510"
         inkscape:connector-curvature="0" /></clipPath><clipPath
       clipPathUnits="userSpaceOnUse"
       id="clipPath4520"><path
         d="m 135.729,141.382 c 0,0 28.623,-49.15 31.803,-56.379 l 0,0 c 3.18,-7.228 14.456,-33.537 17.058,-34.404 l 0,0 c 2.602,-0.868 8.096,1.445 7.228,5.782 l 0,0 c -0.868,4.337 -26.021,69.389 -26.021,69.389 l 0,0 -13.005,19.37 -17.063,-3.758 z"
         id="path4522"
         inkscape:connector-curvature="0" /></clipPath><clipPath
       clipPathUnits="userSpaceOnUse"
       id="clipPath4532"><path
         d="M 0,800 800,800 800,0 0,0 0,800 Z"
         id="path4534"
         inkscape:connector-curvature="0" /></clipPath><clipPath
       clipPathUnits="userSpaceOnUse"
       id="clipPath4552"><path
         d="m 209.854,332.127 c -3.736,-0.498 2.989,-19.678 2.989,-19.678 l 0,0 -14.945,-29.64 c 0,0 -35.868,-61.524 -49.319,-70.492 l 0,0 C 135.129,203.35 102.001,203.6 86.557,190.896 l 0,0 C 71.114,178.193 68.872,153.783 74.352,136.845 l 0,0 c 5.48,-16.938 18.433,-42.344 19.429,-46.081 l 0,0 c 0.996,-3.736 0,-44.586 0,-44.586 l 0,0 c 0,0 10.462,-3.487 12.703,-2.242 l 0,0 c 2.241,1.246 -2.989,6.974 -2.989,12.205 l 0,0 c 0,5.231 4.234,27.649 5.23,40.103 l 0,0 c 0.998,12.454 -2.739,33.378 -2.739,33.378 l 0,0 c 0,0 2.989,6.227 15.443,6.724 l 0,0 c 12.454,0.499 23.912,3.239 23.912,3.239 l 0,0 c 0,0 6.975,-35.37 6.975,-39.356 l 0,0 c 0,-3.985 -13.202,-48.322 -13.202,-48.322 l 0,0 c 0,0 9.216,-6.975 10.462,-4.733 l 0,0 c 1.245,2.242 2.241,13.451 4.234,19.429 l 0,0 c 1.993,5.978 11.458,29.392 13.201,35.121 l 0,0 c 1.744,5.729 3.488,25.157 4.983,33.378 l 0,0 c 1.494,8.219 8.219,19.677 12.702,27.149 l 0,0 c 4.484,7.473 -0.497,19.18 2.741,36.865 l 0,0 c 3.238,17.685 25.803,58.073 37.593,76.851 l 0,0 c 11.791,18.778 19.214,9.898 32.897,8.879 l 0,0 c 13.683,-1.018 7.278,9.316 -1.164,14.265 l 0,0 c -8.443,4.949 -7.424,9.026 -11.645,16.012 l 0,0 c -4.222,6.987 -8.734,7.683 -8.734,7.683 l 0,0 0,7.165 -4.949,0 -1.31,-7.165 c -2.475,-0.323 -5.095,-1.423 -5.095,-1.423 l 0,0 c 0,0 -10.949,10.761 -14.922,10.76 l 0,0 c -0.088,0 -0.173,-0.005 -0.254,-0.016"
         id="path4554"
         inkscape:connector-curvature="0" /></clipPath><clipPath
       clipPathUnits="userSpaceOnUse"
       id="clipPath4656"><path
         d="M 0,800 800,800 800,0 0,0 0,800 Z"
         id="path4658"
         inkscape:connector-curvature="0" /></clipPath><clipPath
       clipPathUnits="userSpaceOnUse"
       id="clipPath4692"><path
         d="m 208.148,545.755 c 24.965,-15.291 37.17,0 37.17,0 l 0,0 c -5.272,25.589 -1.594,42.109 -1.594,42.109 l 0,0 c -1.873,9.654 -27.774,15.623 -27.774,15.623 l 0,0 c 0,0 -32.767,-42.44 -7.802,-57.732"
         id="path4694"
         inkscape:connector-curvature="0" /></clipPath><clipPath
       clipPathUnits="userSpaceOnUse"
       id="clipPath4704"><path
         d="M 0,800 800,800 800,0 0,0 0,800 Z"
         id="path4706"
         inkscape:connector-curvature="0" /></clipPath><clipPath
       clipPathUnits="userSpaceOnUse"
       id="clipPath4716"><path
         d="m 120.771,552.621 c 18.1,-11.859 29.022,2.298 29.022,2.298 l 0,0 c -3.745,13.22 -4.923,42.197 -4.923,42.197 l 0,0 -20.042,8.555 c 0,0 -22.156,-41.192 -4.057,-53.05"
         id="path4718"
         inkscape:connector-curvature="0" /></clipPath><clipPath
       clipPathUnits="userSpaceOnUse"
       id="clipPath4728"><path
         d="M 0,800 800,800 800,0 0,0 0,800 Z"
         id="path4730"
         inkscape:connector-curvature="0" /></clipPath><clipPath
       clipPathUnits="userSpaceOnUse"
       id="clipPath4740"><path
         d="M 101.029,660.906 C 73.962,632.508 89.878,588.508 88.629,584.763 l 0,0 c -1.248,-3.745 -8.113,-31.83 0.936,-34.95 l 0,0 c 9.05,-3.122 39.632,-8.517 37.135,8.38 l 0,0 c -2.496,16.896 -0.311,37.128 -0.311,37.128 l 0,0 c 0,0 28.085,-16.375 51.801,-2.544 l 0,0 c 0,0 -0.311,-19.248 -1.872,-27.986 l 0,0 c -1.561,-8.738 -2.496,-26.213 20.908,-25.901 l 0,0 c 23.404,0.313 18.184,4.278 16.269,19.303 l 0,0 c -1.914,15.024 9.151,44.669 9.151,44.669 l 0,0 c 0,0 -2.268,43.378 -17.277,51.491 l 0,0 c -15.008,8.114 -50.583,20.596 -50.583,20.596 l 0,0 c 0,0 -6.748,3.627 -16.894,3.628 l 0,0 c -10.037,10e-4 -23.402,-3.548 -36.863,-17.671"
         id="path4742"
         inkscape:connector-curvature="0" /></clipPath><clipPath
       clipPathUnits="userSpaceOnUse"
       id="clipPath4792"><path
         d="M 0,800 800,800 800,0 0,0 0,800 Z"
         id="path4794"
         inkscape:connector-curvature="0" /></clipPath><clipPath
       clipPathUnits="userSpaceOnUse"
       id="clipPath4816"><path
         d="m 158.936,723.728 c -30.572,-14.137 -3.73,-64.436 9.495,-85.123 l 0,0 c 13.227,-20.687 26.792,-15.261 36.966,-13.565 l 0,0 c 10.175,1.696 19.331,-13.904 32.217,-39.678 l 0,0 c 12.887,-25.774 55.619,-27.131 64.775,-14.922 l 0,0 c 9.157,12.208 -1.356,17.295 -1.356,17.295 l 0,0 c -44.088,-17.295 -49.514,32.558 -46.462,45.783 l 0,0 c 3.052,13.227 30.861,53.244 0,80.714 l 0,0 c -30.861,27.47 -57.991,-5.766 -57.991,-5.766 l 0,0 c 0,0 -7.165,18.474 -24.443,18.474 l 0,0 c -3.879,0 -8.268,-0.932 -13.201,-3.212"
         id="path4818"
         inkscape:connector-curvature="0" /></clipPath><clipPath
       clipPathUnits="userSpaceOnUse"
       id="clipPath4876"><path
         d="M 0,800 800,800 800,0 0,0 0,800 Z"
         id="path4878"
         inkscape:connector-curvature="0" /></clipPath><clipPath
       clipPathUnits="userSpaceOnUse"
       id="clipPath4920"><path
         d="m 489.359,613.885 c -5.215,-13.539 13.89,-9.062 26.334,-8.615 l 0,0 c 12.444,0.447 28.634,-14.435 65.135,-25 l 0,0 c 36.502,-10.566 84.307,1.416 84.307,1.416 l 0,0 c 10.045,2.078 18.787,6.937 18.787,6.937 l 0,0 c 44.654,-7.338 49.564,6.122 49.564,6.122 l 0,0 c -21.012,-0.692 -32.571,16.569 -32.571,16.569 l 0,0 -33.009,-10.296 -39.236,-6.928 -32.8,3.576 -25.409,11.926 -24.19,13.727 c 0,0 -15.911,11.413 -29.329,11.952 l 0,0 c -0.408,0.017 -0.811,0.025 -1.211,0.025 l 0,0 c -12.747,0 -21.316,-8.285 -26.372,-21.411"
         id="path4922"
         inkscape:connector-curvature="0" /></clipPath><clipPath
       clipPathUnits="userSpaceOnUse"
       id="clipPath4932"><path
         d="M 0,800 800,800 800,0 0,0 0,800 Z"
         id="path4934"
         inkscape:connector-curvature="0" /></clipPath><clipPath
       clipPathUnits="userSpaceOnUse"
       id="clipPath4968"><path
         d="m 546.271,623.319 c 94.685,-84.681 159.612,-13.394 159.612,-13.394 l 0,0 c -9.943,25.097 -33.874,55.713 -84.975,58.757 l 0,0 c -1.559,0.093 -3.088,0.138 -4.596,0.138 l 0,0 c -47.915,-0.004 -70.041,-45.501 -70.041,-45.501"
         id="path4970"
         inkscape:connector-curvature="0" /></clipPath><clipPath
       clipPathUnits="userSpaceOnUse"
       id="clipPath5012"><path
         d="M 0,800 800,800 800,0 0,0 0,800 Z"
         id="path5014"
         inkscape:connector-curvature="0" /></clipPath><clipPath
       clipPathUnits="userSpaceOnUse"
       id="clipPath5042"><path
         d="M 0,800 800,800 800,0 0,0 0,800 Z"
         id="path5044"
         inkscape:connector-curvature="0" /></clipPath><clipPath
       clipPathUnits="userSpaceOnUse"
       id="clipPath5098"><path
         d="M 0,800 800,800 800,0 0,0 0,800 Z"
         id="path5100"
         inkscape:connector-curvature="0" /></clipPath></defs><sodipodi:namedview
     pagecolor="#ffffff"
     bordercolor="#666666"
     borderopacity="1"
     objecttolerance="10"
     gridtolerance="10"
     guidetolerance="10"
     inkscape:pageopacity="0"
     inkscape:pageshadow="2"
     inkscape:window-width="1364"
     inkscape:window-height="815"
     id="namedview4310"
     showgrid="false"
     fit-margin-top="10"
     fit-margin-left="10"
     fit-margin-right="10"
     fit-margin-bottom="10"
     inkscape:zoom="0.649"
     inkscape:cx="290.79657"
     inkscape:cy="310.75136"
     inkscape:window-x="0"
     inkscape:window-y="0"
     inkscape:window-maximized="0"
     inkscape:current-layer="g4316" /><g
     id="g4316"
     inkscape:groupmode="layer"
     inkscape:label="75045-OEW7E4-337"
     transform="matrix(1.25,0,0,-1.25,-600.59683,846.025)"><g
       id="g4908"
       transform="translate(512.7317,567.0582)"><path
         d="m 0,0 c 0,-9.447 50.746,-17.105 113.345,-17.105 62.599,0 113.345,7.658 113.345,17.105 0,9.447 -50.746,17.105 -113.345,17.105 C 50.746,17.105 0,9.447 0,0"
         style="fill:#e0b027;fill-opacity:1;fill-rule:nonzero;stroke:none"
         id="path4910"
         inkscape:connector-curvature="0" /></g><g
       id="g4912"
       transform="translate(665.1349,581.6866)"><path
         d="m 0,0 c 0,0 -47.805,-11.982 -84.306,-1.417 -36.501,10.565 -52.692,25.448 -65.136,25 -12.444,-0.447 -31.549,-4.924 -26.334,8.615 5.214,13.538 14.165,21.925 27.583,21.386 13.418,-0.538 29.329,-11.951 29.329,-11.951 l 24.191,-13.728 25.408,-11.926 32.8,-3.575 39.236,6.928 33.009,10.296 c 0,0 11.56,-17.262 32.571,-16.57 0,0 -4.91,-13.46 -49.564,-6.122 C 18.787,6.936 10.045,2.078 0,0"
         style="fill:#aae87e;fill-opacity:1;fill-rule:nonzero;stroke:none"
         id="path4914"
         inkscape:connector-curvature="0" /></g><g
       id="g4916"><g
         id="g4918"
         clip-path="url(#clipPath4920)"><g
           id="g4924"
           transform="translate(504.0625,639.2517)"><path
             d="M 0,0 C 0,0 9.711,-20.938 32.527,-5.039 55.343,10.86 0,0 0,0"
             style="fill:#aae87e;fill-opacity:1;fill-rule:nonzero;stroke:none"
             id="path4926"
             inkscape:connector-curvature="0" /></g></g></g><g
       id="g4928"><g
         id="g4930"
         clip-path="url(#clipPath4932)"><g
           id="g4936"
           transform="translate(520.442,637.3292)"><path
             d="m 0,0 c 0,0 -4.087,10.204 3.165,23.552 0,0 3.783,-0.432 7.244,-3.568 C 10.409,19.984 2.625,9.388 0,0"
             style="fill:#00a38b;fill-opacity:1;fill-rule:nonzero;stroke:none"
             id="path4938"
             inkscape:connector-curvature="0" /></g><g
           id="g4940"
           transform="translate(520.442,637.3292)"><path
             d="m 0,0 c 0,0 12.113,12.807 24.708,18.202 0,0 -0.272,5.233 -3.71,8.797 C 20.998,26.999 1.46,14.871 0,0"
             style="fill:#77bc8f;fill-opacity:1;fill-rule:nonzero;stroke:none"
             id="path4942"
             inkscape:connector-curvature="0" /></g><g
           id="g4944"
           transform="translate(520.442,637.3292)"><path
             d="m 0,0 c 0,0 6.567,11.418 23.934,15.092 0,0 1.695,-5.486 0.833,-9.776 0,0 -8.425,0.38 -24.767,-5.316"
             style="fill:#f38065;fill-opacity:1;fill-rule:nonzero;stroke:none"
             id="path4946"
             inkscape:connector-curvature="0" /></g><g
           id="g4948"
           transform="translate(680.151,595.1618)"><path
             d="m 0,0 c 0,0 6.547,-13.614 17.053,-21.373 10.506,-7.758 9.409,-14.236 -1.756,-15.219 -11.166,-0.984 -44.016,2.847 -40.381,28.61 C -21.45,17.782 0,0 0,0"
             style="fill:#91bc5e;fill-opacity:1;fill-rule:nonzero;stroke:none"
             id="path4950"
             inkscape:connector-curvature="0" /></g><g
           id="g4952"
           transform="translate(593.2567,608.6732)"><path
             d="m 0,0 c 0,0 -18.615,-16.304 -11.178,-29.505 7.437,-13.2 15.609,-18.304 10.627,-21.994 -4.982,-3.689 -49.524,6.65 -45.277,27.886 4.247,21.236 37.803,29.241 37.803,29.241 L 0,0 Z"
             style="fill:#91bc5e;fill-opacity:1;fill-rule:nonzero;stroke:none"
             id="path4954"
             inkscape:connector-curvature="0" /></g><g
           id="g4956"
           transform="translate(506.2322,623.0048)"><path
             d="m 0,0 c 0.416,-2.154 2.5,-3.562 4.653,-3.146 2.154,0.417 3.562,2.5 3.146,4.654 C 7.383,3.661 5.299,5.07 3.146,4.653 0.992,4.237 -0.416,2.154 0,0"
             style="fill:#5faa82;fill-opacity:1;fill-rule:nonzero;stroke:none"
             id="path4958"
             inkscape:connector-curvature="0" /></g><g
           id="g4960"
           transform="translate(546.2711,623.3196)"><path
             d="m 0,0 c 0,0 23.535,48.406 74.637,45.362 51.102,-3.044 75.032,-33.66 84.974,-58.756 0,0 -64.927,-71.287 -159.611,13.394"
             style="fill:#79bb90;fill-opacity:1;fill-rule:nonzero;stroke:none"
             id="path4962"
             inkscape:connector-curvature="0" /></g></g></g><g
       id="g4964"><g
         id="g4966"
         clip-path="url(#clipPath4968)"><g
           id="g4972"
           transform="translate(699.4335,625.6505)"><path
             d="m 0,0 c 0,0 -1.262,-17.474 -22.65,-16.702 -21.387,0.773 -16.899,1.503 -28.753,-3.728 -11.854,-5.23 -11.591,4.467 -24.436,1.927 -12.845,-2.539 -14.094,-1.69 -21.366,3.122 -7.272,4.811 -17.521,-0.102 -24.147,6.316 -6.626,6.417 -10.35,16.607 -14.395,17.884 -4.045,1.278 -14.746,3.441 -14.746,3.441 l 25.546,26.793 55.463,15.993 32.267,-6.279 L -15.89,27.648 0,0 Z"
             style="fill:#00a38b;fill-opacity:1;fill-rule:nonzero;stroke:none"
             id="path4974"
             inkscape:connector-curvature="0" /></g><g
           id="g4976"
           transform="translate(699.9607,631.8123)"><path
             d="m 0,0 -29.036,5.336 -8.18,-17.398 -17.668,9.147 -14.744,-14.136 -11.911,16.687 -16.541,-13.875 -7.987,22.313 -21.604,-1.614 2.006,28.985 56.378,19.616 50.013,-13.841 c 0,0 17.795,-26.716 18.232,-27.275 C -0.605,13.385 0,0 0,0"
             style="fill:#ec7c68;fill-opacity:1;fill-rule:nonzero;stroke:none"
             id="path4978"
             inkscape:connector-curvature="0" /></g><g
           id="g4980"
           transform="translate(682.2012,647.4705)"><path
             d="m 0,0 c 0,0 -19.765,-23.596 -59.94,-14.55 -40.175,9.046 -43.039,26.796 -44.764,30.823 -1.726,4.027 54.091,13.521 54.091,13.521 L -21.081,23.112 0,0 Z"
             style="fill:#77bc8f;fill-opacity:1;fill-rule:nonzero;stroke:none"
             id="path4982"
             inkscape:connector-curvature="0" /></g><g
           id="g4984"
           transform="translate(640.7822,667.8786)"><path
             d="M 0,0 19.083,-14.868 -14.418,-26.429 -44.137,-6.655 -21.971,3.296 0,0 Z"
             style="fill:#f9eb99;fill-opacity:1;fill-rule:nonzero;stroke:none"
             id="path4986"
             inkscape:connector-curvature="0" /></g><g
           id="g4988"
           transform="translate(674.4252,628.0671)"><path
             d="m 0,0 c 0.36,-2.586 2.747,-4.39 5.333,-4.031 2.586,0.36 4.39,2.748 4.03,5.333 C 9.004,3.888 6.616,5.692 4.031,5.333 1.445,4.973 -0.36,2.586 0,0"
             style="fill:#79bd86;fill-opacity:1;fill-rule:nonzero;stroke:none"
             id="path4990"
             inkscape:connector-curvature="0" /></g><g
           id="g4992"
           transform="translate(644.0142,618.1671)"><path
             d="m 0,0 c 0.36,-2.586 2.747,-4.39 5.333,-4.031 2.586,0.36 4.39,2.748 4.03,5.333 C 9.004,3.888 6.616,5.693 4.031,5.333 1.445,4.973 -0.36,2.586 0,0"
             style="fill:#79bd86;fill-opacity:1;fill-rule:nonzero;stroke:none"
             id="path4994"
             inkscape:connector-curvature="0" /></g><g
           id="g4996"
           transform="translate(614.8406,616.2905)"><path
             d="m 0,0 c 0.36,-2.586 2.747,-4.39 5.333,-4.031 2.585,0.36 4.39,2.748 4.03,5.333 C 9.004,3.888 6.616,5.693 4.031,5.333 1.445,4.973 -0.36,2.586 0,0"
             style="fill:#79bd86;fill-opacity:1;fill-rule:nonzero;stroke:none"
             id="path4998"
             inkscape:connector-curvature="0" /></g><g
           id="g5000"
           transform="translate(582.0117,626.4389)"><path
             d="m 0,0 c 0.36,-2.586 2.747,-4.39 5.333,-4.031 2.586,0.36 4.39,2.748 4.03,5.333 C 9.004,3.888 6.616,5.693 4.031,5.333 1.445,4.973 -0.36,2.586 0,0"
             style="fill:#79bd86;fill-opacity:1;fill-rule:nonzero;stroke:none"
             id="path5002"
             inkscape:connector-curvature="0" /></g><g
           id="g5004"
           transform="translate(558.4738,641.2693)"><path
             d="m 0,0 c 0.36,-2.586 2.747,-4.39 5.333,-4.031 2.586,0.36 4.39,2.748 4.03,5.333 C 9.004,3.888 6.616,5.693 4.031,5.333 1.445,4.973 -0.36,2.586 0,0"
             style="fill:#79bd86;fill-opacity:1;fill-rule:nonzero;stroke:none"
             id="path5006"
             inkscape:connector-curvature="0" /></g></g></g></g></svg>